<?xml version="1.0" encoding="iso-8859-1"?>
<!-- Generator: Adobe Illustrator 19.0.0, SVG Export Plug-In . SVG Version: 6.00 Build 0)  -->
<svg xmlns="http://www.w3.org/2000/svg" xmlns:xlink="http://www.w3.org/1999/xlink" version="1.1" id="Capa_1" x="0px" y="0px" viewBox="0 0 512.032 512.032" style="enable-background:new 0 0 512.032 512.032;" xml:space="preserve" width="512px" height="512px">
<g>
	<g>
		<circle cx="128.016" cy="128.032" r="8" fill="#f8e510"/>
	</g>
</g>
<g>
	<g>
		<circle cx="128.016" cy="88.032" r="8" fill="#f8e510"/>
	</g>
</g>
<g>
	<g>
		<circle cx="384.016" cy="128.032" r="8" fill="#f8e510"/>
	</g>
</g>
<g>
	<g>
		<circle cx="384.016" cy="88.032" r="8" fill="#f8e510"/>
	</g>
</g>
<g>
	<g>
		<path d="M472.016,280.032h-19.2l-66.4-124l-64.8,48l-57.6-94.4v-37.6h40c4.8,0,8-3.2,8-8c0-2.4-0.8-4.8-3.2-6.4l-47.2-55.2    c-1.6-2.4-5.6-3.2-8-1.6c-3.2,0.8-5.6,4-5.6,7.2v56v45.6l-65.6,101.6l-56.8-56.8l-66.4,125.6h-19.2c-4.8,0-8,3.2-8,8v0.8    c0.8,123.2,100,222.4,223.2,223.2h0.8h0.8c123.2-0.8,222.4-100,223.2-223.2v-0.8C480.016,283.232,476.816,280.032,472.016,280.032    z M264.016,29.632l22.4,26.4h-22.4V29.632z M49.616,296.032h74.4c0.8,31.2,4.8,60,12,86.4c-49.6-19.2-83.2-51.2-88-86.4H49.616z     M56.816,348.832c19.2,22.4,48.8,40.8,85.6,52.8c12.8,36,31.2,65.6,52.8,85.6C129.616,466.432,77.616,414.432,56.816,348.832z     M248.016,495.232c-36-4.8-67.2-38.4-86.4-88c26.4,8,55.2,12,86.4,12.8V495.232z M248.016,404.032c-33.6-0.8-65.6-5.6-93.6-14.4    c-8.8-28-13.6-59.2-14.4-93.6h108V404.032z M77.616,280.032l52-98.4l55.2,55.2l71.2-109.6l61.6,100.8l63.2-48l53.6,100H77.616z     M372.016,296.032c-0.8,33.6-5.6,65.6-14.4,93.6c-28,8.8-59.2,13.6-93.6,14.4v-108H372.016z M264.016,495.232v-75.2    c31.2-0.8,60-4.8,86.4-12C331.216,457.632,300.016,491.232,264.016,495.232z M316.816,487.232c22.4-19.2,40.8-48.8,52.8-85.6    c36-12.8,65.6-31.2,85.6-52.8C434.416,414.432,382.416,466.432,316.816,487.232z M375.216,382.432c7.2-26.4,12-56,12-86.4h73.6    h2.4C458.416,332.032,424.816,363.232,375.216,382.432z" fill="#f8e510"/>
	</g>
</g>
<g>
	<g>
		<path d="M280.016,336.032c-4.8,0-8,3.2-8,8v8c0,4.8,3.2,8,8,8s8-3.2,8-8v-8C288.016,339.232,284.816,336.032,280.016,336.032z" fill="#f8e510"/>
	</g>
</g>
<g>
	<g>
		<path d="M232.016,328.032c-4.8,0-8,3.2-8,8v8c0,4.8,3.2,8,8,8s8-3.2,8-8v-8C240.016,331.232,236.816,328.032,232.016,328.032z" fill="#f8e510"/>
	</g>
</g>
<g>
	<g>
		<path d="M232.016,360.032c-4.8,0-8,3.2-8,8v8c0,4.8,3.2,8,8,8s8-3.2,8-8v-8C240.016,363.232,236.816,360.032,232.016,360.032z" fill="#f8e510"/>
	</g>
</g>
<g>
	<g>
		<path d="M168.016,256.032h-8c-4.8,0-8,3.2-8,8s3.2,8,8,8h8c4.8,0,8-3.2,8-8S172.816,256.032,168.016,256.032z" fill="#f8e510"/>
	</g>
</g>
<g>
	<g>
		<path d="M208.016,256.032h-8c-4.8,0-8,3.2-8,8s3.2,8,8,8h8c4.8,0,8-3.2,8-8S212.816,256.032,208.016,256.032z" fill="#f8e510"/>
	</g>
</g>
<g>
	<g>
		<path d="M128.016,256.032h-8c-4.8,0-8,3.2-8,8s3.2,8,8,8h8c4.8,0,8-3.2,8-8S132.816,256.032,128.016,256.032z" fill="#f8e510"/>
	</g>
</g>
<g>
	<g>
		<path d="M232.016,432.032c-4.8,0-8,3.2-8,8v24c0,4.8,3.2,8,8,8s8-3.2,8-8v-24C240.016,435.232,236.816,432.032,232.016,432.032z" fill="#f8e510"/>
	</g>
</g>
<g>
</g>
<g>
</g>
<g>
</g>
<g>
</g>
<g>
</g>
<g>
</g>
<g>
</g>
<g>
</g>
<g>
</g>
<g>
</g>
<g>
</g>
<g>
</g>
<g>
</g>
<g>
</g>
<g>
</g>
</svg>
