<?xml version="1.0" encoding="utf-8"?>
<!-- Generator: Adobe Illustrator 24.2.3, SVG Export Plug-In . SVG Version: 6.00 Build 0)  -->
<svg version="1.1" id="レイヤー_1" xmlns="http://www.w3.org/2000/svg" xmlns:xlink="http://www.w3.org/1999/xlink" x="0px"
	 y="0px" viewBox="0 0 516.5 146.25" style="enable-background:new 0 0 516.5 146.25;" xml:space="preserve">
<style type="text/css">
	.st0{fill:#804C27;}
	.st1{fill:#FFFFFF;}
	.st2{fill-rule:evenodd;clip-rule:evenodd;fill:#151310;}
	.st3{fill:#151310;}
	.st4{fill:#070001;}
</style>
<g>
	<g>
		<rect y="97.41" class="st0" width="516.5" height="48.84"/>
		<g>
			<path class="st1" d="M32.85,116.23h-1.28c-0.33-1.08-0.87-2.24-1.61-3.48c-0.74-1.23-1.42-1.9-2.05-2
				c-0.34-0.05-0.77-0.09-1.28-0.13c-0.51-0.03-0.94-0.05-1.31-0.05h-0.76v19.8c0,0.43,0.07,0.8,0.21,1.13
				c0.14,0.33,0.42,0.59,0.84,0.77c0.25,0.11,0.64,0.22,1.17,0.33c0.53,0.11,0.98,0.19,1.35,0.24v1.41H15.22v-1.41
				c0.32-0.04,0.76-0.09,1.33-0.15c0.57-0.06,0.96-0.15,1.17-0.24c0.42-0.19,0.71-0.44,0.85-0.77c0.14-0.32,0.21-0.7,0.21-1.14
				v-19.98h-0.76c-0.37,0-0.8,0.02-1.31,0.05c-0.51,0.04-0.93,0.08-1.28,0.13c-0.63,0.09-1.31,0.76-2.05,2
				c-0.74,1.24-1.27,2.4-1.61,3.48h-1.28v-7.27h22.34V116.23z"/>
			<path class="st1" d="M57.59,134.27h-9.73v-1.18c0.22-0.02,0.47-0.05,0.76-0.08c0.29-0.03,0.51-0.09,0.65-0.16
				c0.23-0.12,0.39-0.3,0.48-0.52c0.09-0.23,0.14-0.56,0.14-1.01v-7.61c0-1.12-0.21-1.95-0.63-2.5c-0.42-0.55-1.01-0.83-1.78-0.83
				c-0.43,0-0.84,0.07-1.21,0.2c-0.38,0.13-0.74,0.32-1.1,0.57c-0.31,0.22-0.57,0.44-0.76,0.67c-0.19,0.22-0.35,0.43-0.48,0.6v8.73
				c0,0.4,0.05,0.72,0.15,0.95c0.1,0.23,0.28,0.42,0.55,0.58c0.16,0.1,0.38,0.19,0.65,0.26c0.27,0.08,0.52,0.13,0.77,0.16v1.18h-9.9
				v-1.18c0.28-0.02,0.56-0.05,0.82-0.08c0.27-0.03,0.5-0.09,0.71-0.16c0.35-0.13,0.58-0.32,0.71-0.56
				c0.12-0.24,0.19-0.57,0.19-0.96v-18.11c0-0.35-0.08-0.72-0.24-1.1c-0.16-0.39-0.39-0.68-0.68-0.88
				c-0.22-0.14-0.53-0.25-0.94-0.33c-0.41-0.08-0.78-0.13-1.1-0.15v-1.18l8.07-0.44l0.24,0.26v11.17h0.06c0.41-0.37,0.78-0.7,1.11-1
				c0.33-0.3,0.73-0.6,1.21-0.9c0.4-0.26,0.92-0.48,1.57-0.66c0.64-0.19,1.34-0.28,2.08-0.28c1.75,0,3.07,0.5,3.95,1.51
				c0.88,1.01,1.32,2.34,1.32,3.99v7.96c0,0.4,0.06,0.72,0.18,0.96c0.12,0.24,0.34,0.43,0.66,0.57c0.19,0.08,0.41,0.16,0.65,0.23
				c0.24,0.06,0.53,0.12,0.87,0.16V134.27z"/>
			<path class="st1" d="M69.32,134.27h-10.2v-1.18c0.28-0.02,0.55-0.05,0.81-0.08c0.27-0.03,0.5-0.09,0.69-0.16
				c0.34-0.13,0.58-0.32,0.72-0.56c0.14-0.24,0.21-0.56,0.21-0.96v-9.44c0-0.38-0.09-0.71-0.26-1c-0.17-0.28-0.39-0.52-0.65-0.69
				c-0.19-0.13-0.49-0.25-0.88-0.37c-0.39-0.12-0.75-0.19-1.07-0.23v-1.18l7.97-0.44l0.24,0.25v12.89c0,0.38,0.08,0.7,0.24,0.96
				c0.16,0.26,0.39,0.46,0.69,0.59c0.21,0.1,0.45,0.19,0.7,0.26c0.25,0.08,0.52,0.13,0.8,0.16V134.27z M67,112.15
				c0,0.83-0.32,1.53-0.95,2.1c-0.63,0.58-1.39,0.87-2.25,0.87c-0.88,0-1.64-0.29-2.27-0.87c-0.64-0.58-0.95-1.28-0.95-2.1
				c0-0.82,0.32-1.52,0.95-2.11c0.63-0.58,1.39-0.88,2.27-0.88c0.88,0,1.63,0.29,2.26,0.88C66.68,110.63,67,111.33,67,112.15z"/>
			<path class="st1" d="M92.28,134.27h-9.76v-1.18c0.2-0.02,0.46-0.05,0.75-0.08c0.29-0.03,0.52-0.09,0.67-0.16
				c0.23-0.12,0.39-0.3,0.49-0.52c0.1-0.23,0.15-0.56,0.15-1.01v-7.61c0-1.11-0.2-1.94-0.61-2.5c-0.41-0.56-1.01-0.84-1.8-0.84
				c-0.44,0-0.84,0.07-1.21,0.2c-0.38,0.13-0.74,0.32-1.1,0.57c-0.31,0.22-0.57,0.44-0.76,0.67c-0.19,0.22-0.35,0.43-0.48,0.6v8.73
				c0,0.38,0.05,0.7,0.16,0.95c0.11,0.26,0.29,0.45,0.54,0.58c0.17,0.1,0.39,0.19,0.65,0.26c0.26,0.08,0.52,0.13,0.77,0.16v1.18
				h-9.89v-1.18c0.27-0.02,0.54-0.05,0.81-0.08c0.27-0.04,0.51-0.09,0.7-0.16c0.34-0.12,0.58-0.3,0.71-0.55
				c0.13-0.25,0.19-0.57,0.19-0.97v-9.44c0-0.34-0.09-0.66-0.26-0.99c-0.17-0.32-0.4-0.59-0.68-0.79c-0.19-0.13-0.44-0.24-0.74-0.32
				c-0.3-0.08-0.62-0.14-0.98-0.18v-1.18l7.77-0.44l0.24,0.24v2.33h0.07c0.3-0.27,0.67-0.6,1.1-0.98c0.43-0.38,0.83-0.68,1.2-0.93
				c0.4-0.26,0.92-0.48,1.57-0.66c0.65-0.19,1.34-0.28,2.08-0.28c1.76,0,3.08,0.5,3.97,1.5c0.88,1,1.32,2.33,1.32,3.99v7.96
				c0,0.4,0.06,0.72,0.18,0.96c0.12,0.24,0.34,0.43,0.67,0.57c0.17,0.08,0.39,0.15,0.64,0.23c0.25,0.08,0.54,0.13,0.87,0.16V134.27z
				"/>
			<path class="st1" d="M114.61,134.27h-7.63c-0.94-1.65-1.8-3.06-2.58-4.21c-0.78-1.15-1.52-2.22-2.21-3.21l-0.97,0.82v3.55
				c0,0.39,0.06,0.71,0.17,0.96c0.11,0.25,0.33,0.43,0.66,0.55c0.19,0.09,0.42,0.16,0.68,0.23c0.26,0.06,0.52,0.11,0.78,0.13v1.18
				H93.45v-1.18c0.27-0.02,0.54-0.05,0.81-0.08c0.27-0.04,0.51-0.09,0.71-0.16c0.35-0.12,0.58-0.3,0.71-0.55
				c0.13-0.25,0.19-0.57,0.19-0.97v-18.11c0-0.35-0.08-0.73-0.23-1.11c-0.16-0.38-0.39-0.67-0.69-0.87
				c-0.2-0.13-0.51-0.24-0.92-0.33c-0.41-0.09-0.78-0.14-1.12-0.16v-1.18l8.07-0.44l0.25,0.26v16.75c0.8-0.71,1.7-1.54,2.7-2.49
				c1-0.94,1.8-1.72,2.41-2.34c0.36-0.37,0.55-0.65,0.59-0.84c0.04-0.19,0.06-0.3,0.06-0.35c0-0.2-0.17-0.35-0.51-0.48
				c-0.34-0.13-0.86-0.25-1.54-0.34v-1.15h8.24v1.11c-1.08,0.3-1.9,0.59-2.47,0.86c-0.57,0.26-1.19,0.62-1.86,1.07
				c-0.44,0.29-0.87,0.6-1.29,0.92c-0.41,0.32-0.89,0.72-1.43,1.2c1.06,1.54,2.04,2.96,2.93,4.28c0.9,1.31,1.84,2.7,2.82,4.16
				c0.33,0.51,0.75,0.85,1.25,1.02c0.5,0.17,0.99,0.29,1.49,0.32V134.27z"/>
			<path class="st1" d="M144.7,113.78c1.14,1.04,2.04,2.3,2.71,3.77c0.67,1.47,1,3.15,1,5.04c0,2.67-0.67,5.02-2.01,7.05
				c-1.34,2.03-3.23,3.48-5.67,4.37c0.03,1.28,0.42,2.4,1.17,3.34c0.75,0.94,1.63,1.41,2.64,1.41c0.63,0,1.18-0.04,1.65-0.11
				c0.47-0.08,0.9-0.17,1.27-0.26v1.43c-0.62,0.26-1.53,0.53-2.74,0.79c-1.21,0.27-2.48,0.4-3.82,0.4c-1.82,0-3.32-0.54-4.49-1.63
				c-1.17-1.09-1.83-2.61-1.97-4.56c-1.54-0.15-2.97-0.53-4.29-1.14c-1.32-0.61-2.49-1.42-3.49-2.45c-0.99-1.02-1.77-2.23-2.35-3.62
				c-0.58-1.4-0.87-2.93-0.87-4.61c0-1.88,0.32-3.59,0.97-5.13c0.64-1.53,1.53-2.84,2.66-3.94c1.11-1.07,2.44-1.9,3.97-2.48
				c1.53-0.58,3.16-0.87,4.89-0.87c1.72,0,3.34,0.28,4.85,0.84C142.29,111.98,143.6,112.77,144.7,113.78z M140.53,130.28
				c0.49-0.99,0.84-2.11,1.06-3.35c0.22-1.24,0.32-2.66,0.32-4.23c0-1.33-0.09-2.63-0.28-3.9c-0.19-1.26-0.51-2.39-0.97-3.38
				c-0.47-0.99-1.08-1.78-1.85-2.37c-0.77-0.6-1.73-0.9-2.88-0.9c-1.96,0-3.45,0.93-4.47,2.79c-1.02,1.86-1.53,4.49-1.53,7.88
				c0,1.44,0.11,2.8,0.33,4.08c0.22,1.28,0.57,2.4,1.05,3.35c0.49,0.97,1.11,1.72,1.85,2.25c0.75,0.54,1.67,0.81,2.76,0.81
				c1.07,0,2-0.27,2.76-0.82C139.46,131.97,140.07,131.22,140.53,130.28z"/>
			<path class="st1" d="M171.66,133.93l-7.73,0.47l-0.24-0.22v-2.12h-0.1c-0.37,0.34-0.73,0.66-1.08,0.98
				c-0.35,0.32-0.77,0.61-1.26,0.87c-0.55,0.29-1.07,0.51-1.56,0.65c-0.49,0.14-1.21,0.21-2.15,0.21c-1.63,0-2.88-0.49-3.75-1.48
				c-0.87-0.99-1.31-2.38-1.31-4.17v-7.3c0-0.42-0.08-0.77-0.24-1.03c-0.16-0.27-0.38-0.5-0.64-0.71c-0.21-0.16-0.49-0.28-0.84-0.35
				c-0.34-0.07-0.65-0.12-0.93-0.14v-1.18l7.83-0.44l0.18,0.25v10.79c0,1.11,0.21,1.94,0.64,2.47c0.43,0.53,1.02,0.79,1.77,0.79
				c0.77,0,1.46-0.2,2.07-0.6c0.61-0.4,1.06-0.83,1.34-1.29v-8.74c0-0.37-0.07-0.7-0.21-0.99c-0.14-0.29-0.34-0.53-0.61-0.71
				c-0.19-0.13-0.47-0.22-0.83-0.26c-0.36-0.04-0.73-0.08-1.11-0.1v-1.18l7.87-0.44l0.24,0.25v12.53c0,0.38,0.07,0.7,0.22,0.96
				c0.15,0.26,0.37,0.49,0.66,0.68c0.2,0.13,0.47,0.22,0.8,0.27c0.33,0.05,0.65,0.08,0.97,0.09V133.93z"/>
			<path class="st1" d="M191.53,133.94c-0.47,0.21-1.03,0.4-1.68,0.57c-0.64,0.17-1.33,0.26-2.05,0.26c-1.32,0-2.29-0.2-2.92-0.59
				c-0.63-0.39-1.05-0.96-1.27-1.7h-0.1c-0.37,0.37-0.73,0.68-1.07,0.94c-0.34,0.26-0.71,0.48-1.1,0.66c-0.51,0.24-1,0.41-1.48,0.52
				c-0.47,0.11-1.13,0.16-1.98,0.16c-1.26,0-2.34-0.37-3.23-1.11c-0.89-0.74-1.34-1.72-1.34-2.95c0-0.7,0.1-1.3,0.29-1.79
				c0.2-0.5,0.47-0.93,0.83-1.31c0.33-0.35,0.7-0.63,1.13-0.86c0.43-0.23,0.9-0.44,1.41-0.63c0.98-0.36,2.15-0.73,3.52-1.11
				c1.37-0.38,2.37-0.73,3-1.03v-1.56c0-0.27-0.02-0.62-0.07-1.07c-0.04-0.44-0.14-0.82-0.28-1.12c-0.15-0.35-0.39-0.64-0.72-0.88
				c-0.33-0.24-0.76-0.36-1.29-0.36c-0.48,0-0.88,0.07-1.2,0.21c-0.32,0.14-0.58,0.27-0.78,0.41c0.03,0.22,0.13,0.55,0.28,0.99
				c0.15,0.44,0.23,0.87,0.23,1.28c0,0.18-0.05,0.41-0.15,0.69c-0.1,0.27-0.24,0.49-0.42,0.66c-0.25,0.22-0.53,0.39-0.84,0.5
				c-0.31,0.12-0.78,0.18-1.42,0.18c-0.91,0-1.6-0.22-2.06-0.66c-0.47-0.44-0.7-1.01-0.7-1.71c0-0.61,0.24-1.15,0.72-1.63
				c0.48-0.48,1.07-0.88,1.76-1.2c0.68-0.32,1.47-0.58,2.36-0.75c0.89-0.18,1.71-0.27,2.47-0.27c1.05,0,2.01,0.06,2.89,0.19
				c0.88,0.13,1.67,0.38,2.38,0.78c0.67,0.38,1.2,0.93,1.6,1.65c0.4,0.72,0.59,1.66,0.59,2.82c0,1.22-0.02,2.68-0.07,4.36
				c-0.05,1.68-0.07,2.79-0.07,3.31c0,0.49,0.07,0.88,0.21,1.16c0.14,0.28,0.36,0.5,0.66,0.63c0.18,0.09,0.47,0.14,0.85,0.16
				c0.39,0.01,0.74,0.02,1.06,0.02V133.94z M183.53,125.45c-0.62,0.21-1.22,0.44-1.83,0.71c-0.6,0.27-1.1,0.54-1.48,0.84
				c-0.4,0.3-0.72,0.69-0.95,1.17c-0.23,0.47-0.35,1.02-0.35,1.67c0,0.85,0.19,1.46,0.58,1.84c0.39,0.38,0.87,0.57,1.44,0.57
				c0.6,0,1.1-0.12,1.49-0.36c0.39-0.24,0.73-0.55,1.03-0.91L183.53,125.45z"/>
			<path class="st1" d="M202.69,134.27h-10.2v-1.18c0.28-0.02,0.56-0.05,0.82-0.08c0.26-0.03,0.5-0.09,0.71-0.16
				c0.35-0.13,0.58-0.32,0.71-0.56c0.13-0.24,0.19-0.57,0.19-0.96v-17.99c0-0.41-0.08-0.79-0.25-1.15c-0.17-0.35-0.39-0.62-0.67-0.8
				c-0.22-0.14-0.54-0.27-0.98-0.4c-0.44-0.13-0.82-0.2-1.16-0.23v-1.18l8.17-0.44l0.24,0.26v21.72c0,0.4,0.07,0.73,0.21,0.97
				c0.14,0.25,0.37,0.44,0.68,0.58c0.22,0.1,0.44,0.19,0.68,0.26c0.24,0.08,0.52,0.13,0.85,0.16V134.27z"/>
			<path class="st1" d="M214.48,134.27h-10.2v-1.18c0.28-0.02,0.55-0.05,0.81-0.08c0.27-0.03,0.49-0.09,0.68-0.16
				c0.34-0.13,0.58-0.32,0.72-0.56c0.14-0.24,0.21-0.56,0.21-0.96v-9.44c0-0.38-0.09-0.71-0.26-1c-0.17-0.28-0.39-0.52-0.65-0.69
				c-0.19-0.13-0.49-0.25-0.88-0.37c-0.39-0.12-0.75-0.19-1.08-0.23v-1.18l7.97-0.44l0.24,0.25v12.89c0,0.38,0.08,0.7,0.24,0.96
				c0.16,0.26,0.39,0.46,0.69,0.59c0.21,0.1,0.45,0.19,0.7,0.26c0.25,0.08,0.52,0.13,0.8,0.16V134.27z M212.15,112.15
				c0,0.83-0.32,1.53-0.95,2.1c-0.64,0.58-1.39,0.87-2.25,0.87c-0.88,0-1.63-0.29-2.27-0.87c-0.63-0.58-0.95-1.28-0.95-2.1
				c0-0.82,0.32-1.52,0.95-2.11c0.64-0.58,1.39-0.88,2.27-0.88c0.88,0,1.63,0.29,2.26,0.88
				C211.84,110.63,212.15,111.33,212.15,112.15z"/>
			<path class="st1" d="M228.08,133.53c-0.69,0.3-1.43,0.57-2.22,0.81c-0.79,0.24-1.75,0.36-2.89,0.36c-1.69,0-2.94-0.41-3.76-1.23
				c-0.82-0.82-1.22-1.99-1.22-3.52V120h-2.93v-1.79h2.99v-4.91h5.25v4.91h4.58V120h-4.54v8.89c0,1.27,0.18,2.16,0.53,2.69
				c0.35,0.53,0.99,0.8,1.9,0.8c0.29,0,0.7-0.02,1.22-0.06c0.52-0.04,0.89-0.09,1.09-0.14V133.53z"/>
			<path class="st1" d="M247.55,119.33c-0.49,0.08-0.96,0.26-1.42,0.55c-0.46,0.29-0.84,0.75-1.15,1.37
				c-0.93,1.97-1.89,4.07-2.88,6.3c-0.99,2.23-2.08,4.64-3.28,7.23c-0.67,1.45-1.32,2.61-1.95,3.47c-0.63,0.86-1.22,1.53-1.77,1.99
				c-0.52,0.43-1.03,0.75-1.54,0.94c-0.51,0.19-1.02,0.29-1.55,0.29c-1.03,0-1.86-0.29-2.49-0.86c-0.63-0.57-0.95-1.22-0.95-1.93
				c0-0.3,0.03-0.59,0.11-0.84c0.07-0.26,0.22-0.53,0.44-0.81c0.17-0.24,0.44-0.44,0.81-0.61c0.36-0.17,0.77-0.25,1.23-0.25
				c0.61,0,1.19,0.21,1.74,0.64c0.55,0.42,1.13,1.01,1.72,1.75c0.36-0.36,0.8-0.89,1.33-1.59c0.53-0.71,0.91-1.43,1.16-2.18
				c-1.29-2.71-2.43-5.06-3.43-7.05c-1-1.99-2.11-4.21-3.35-6.66c-0.27-0.52-0.63-0.92-1.09-1.21c-0.46-0.29-0.94-0.47-1.44-0.53
				v-1.18h9.93v1.18c-0.37,0.01-0.79,0.09-1.27,0.24c-0.48,0.15-0.71,0.34-0.71,0.58c0,0.09,0.01,0.18,0.05,0.29
				c0.03,0.1,0.09,0.25,0.18,0.45c0.37,0.76,0.89,1.81,1.57,3.16c0.68,1.35,1.46,2.92,2.36,4.73c0.67-1.54,1.24-2.86,1.71-3.97
				c0.47-1.11,0.93-2.2,1.37-3.27c0.11-0.27,0.17-0.48,0.19-0.64c0.01-0.16,0.02-0.26,0.02-0.31c0-0.2-0.09-0.37-0.28-0.51
				c-0.19-0.15-0.41-0.28-0.67-0.38c-0.27-0.11-0.53-0.19-0.78-0.24c-0.25-0.05-0.45-0.09-0.61-0.11v-1.18h6.7V119.33z"/>
			<path class="st1" d="M282.12,134.27h-9.55c-0.26-0.29-0.6-0.67-1.01-1.14c-0.41-0.47-0.76-0.89-1.05-1.26
				c-1.15,1.07-2.29,1.83-3.44,2.29c-1.14,0.46-2.36,0.69-3.65,0.69c-2.02,0-3.68-0.54-4.98-1.64c-1.3-1.09-1.94-2.52-1.94-4.28
				c0-0.88,0.12-1.63,0.35-2.26c0.23-0.63,0.61-1.26,1.13-1.89c0.5-0.61,1.11-1.15,1.85-1.63c0.74-0.49,1.56-0.94,2.48-1.36
				c-0.97-1.23-1.65-2.28-2.04-3.15c-0.38-0.87-0.58-1.76-0.58-2.67c0-1.56,0.65-2.85,1.95-3.86c1.3-1.01,2.85-1.52,4.66-1.52
				c1.69,0,3.05,0.4,4.1,1.2c1.05,0.8,1.57,1.87,1.57,3.19c0,1.15-0.31,2.18-0.94,3.08c-0.63,0.9-1.67,1.79-3.13,2.66
				c1.18,1.52,2.09,2.66,2.74,3.42c0.65,0.76,1.5,1.77,2.58,3.01c0.68-1,1.2-1.92,1.54-2.75c0.34-0.84,0.51-1.54,0.51-2.11
				c0-0.32-0.24-0.58-0.72-0.78c-0.48-0.2-1.16-0.38-2.04-0.56v-1.28h9.09v1.28c-0.99,0.09-1.72,0.21-2.19,0.36
				c-0.47,0.15-0.94,0.46-1.39,0.92c-0.2,0.2-0.44,0.54-0.73,1.03c-0.29,0.49-0.56,0.96-0.82,1.41c-0.32,0.55-0.65,1.12-1.01,1.73
				c-0.36,0.6-0.79,1.23-1.3,1.88c1,1.18,1.82,2.06,2.46,2.64c0.65,0.58,1.17,0.98,1.58,1.2c0.47,0.25,1.06,0.45,1.77,0.6
				c0.71,0.15,1.42,0.24,2.13,0.29V134.27z M269.65,130.81c-0.91-1.09-1.97-2.37-3.17-3.82c-1.21-1.46-2.33-2.84-3.37-4.15
				c-0.57,0.57-0.98,1.22-1.23,1.98c-0.25,0.75-0.38,1.51-0.38,2.27c0,1.44,0.46,2.62,1.38,3.53c0.92,0.91,2.09,1.37,3.5,1.37
				c0.66,0,1.23-0.08,1.72-0.25C268.58,131.56,269.1,131.25,269.65,130.81z M269.53,115.22c0-0.95-0.23-1.7-0.69-2.25
				c-0.46-0.55-1.06-0.82-1.8-0.82c-0.71,0-1.27,0.23-1.71,0.67c-0.43,0.45-0.65,1.04-0.65,1.76c0,0.63,0.2,1.34,0.6,2.13
				c0.4,0.79,1.02,1.76,1.85,2.89c0.83-0.57,1.43-1.24,1.82-2C269.34,116.85,269.53,116.05,269.53,115.22z"/>
			<path class="st1" d="M303.62,134.91c-1.69,0-3.27-0.27-4.74-0.82c-1.47-0.54-2.76-1.34-3.85-2.38c-1.07-1.02-1.92-2.28-2.53-3.79
				c-0.62-1.5-0.93-3.15-0.93-4.96c0-1.79,0.31-3.45,0.93-4.97c0.62-1.52,1.5-2.84,2.63-3.96c1.11-1.1,2.43-1.94,3.98-2.55
				c1.55-0.6,3.21-0.9,4.97-0.9c1.28,0,2.44,0.16,3.5,0.47c1.05,0.32,1.94,0.67,2.67,1.06l1.01-0.9h1.41l0.13,8.42h-1.41
				c-0.81-2.57-1.79-4.46-2.92-5.67c-1.14-1.2-2.53-1.81-4.16-1.81c-2.04,0-3.59,0.9-4.65,2.69c-1.06,1.79-1.59,4.31-1.59,7.55
				c0,1.83,0.18,3.4,0.54,4.69c0.36,1.3,0.84,2.34,1.42,3.13c0.63,0.83,1.37,1.43,2.23,1.81c0.86,0.38,1.8,0.58,2.84,0.58
				c1.52,0,2.87-0.41,4.06-1.23c1.19-0.82,2.27-2.06,3.24-3.72l1.38,0.85c-0.47,0.95-1,1.81-1.59,2.56c-0.6,0.75-1.28,1.4-2.06,1.94
				c-0.86,0.59-1.8,1.06-2.84,1.39C306.25,134.74,305.03,134.91,303.62,134.91z"/>
			<path class="st1" d="M331.33,121.13c0,0.83-0.26,1.55-0.76,2.17c-0.51,0.62-1.18,0.93-2.01,0.93c-0.79,0-1.46-0.2-2-0.59
				c-0.55-0.4-0.82-0.99-0.82-1.77c0-0.38,0.03-0.67,0.08-0.88c0.05-0.21,0.1-0.41,0.15-0.59c-0.5,0.02-1.03,0.19-1.58,0.51
				c-0.56,0.32-1.05,0.75-1.47,1.28v8.92c0,0.38,0.06,0.7,0.18,0.94c0.12,0.25,0.32,0.44,0.6,0.58c0.24,0.12,0.62,0.22,1.16,0.3
				c0.53,0.09,0.92,0.13,1.16,0.14v1.18h-10.87v-1.18c0.27-0.02,0.54-0.05,0.82-0.08c0.27-0.04,0.51-0.09,0.7-0.16
				c0.35-0.12,0.58-0.3,0.71-0.55c0.13-0.25,0.19-0.57,0.19-0.97v-9.44c0-0.39-0.09-0.74-0.28-1.05c-0.18-0.31-0.4-0.55-0.66-0.74
				c-0.19-0.13-0.44-0.24-0.74-0.32c-0.3-0.08-0.62-0.14-0.98-0.18v-1.18l7.76-0.44l0.25,0.24v2.33h0.06
				c0.75-0.86,1.54-1.54,2.38-2.04c0.84-0.5,1.71-0.74,2.62-0.74c1.01,0,1.82,0.32,2.43,0.94
				C331.03,119.34,331.33,120.14,331.33,121.13z"/>
			<path class="st1" d="M349.9,130.38c-0.38,0.62-0.84,1.2-1.37,1.74c-0.54,0.55-1.14,1.01-1.83,1.4c-0.73,0.41-1.46,0.72-2.2,0.93
				c-0.74,0.21-1.59,0.32-2.56,0.32c-1.6,0-2.99-0.23-4.15-0.68c-1.17-0.45-2.13-1.06-2.88-1.83c-0.76-0.77-1.32-1.68-1.7-2.72
				c-0.38-1.05-0.56-2.18-0.56-3.4c0-1.1,0.2-2.16,0.61-3.17c0.41-1.01,0.99-1.91,1.73-2.7c0.74-0.77,1.67-1.39,2.79-1.87
				c1.12-0.47,2.38-0.71,3.76-0.71c1.52,0,2.76,0.19,3.74,0.55c0.98,0.37,1.78,0.88,2.42,1.53c0.62,0.62,1.07,1.35,1.35,2.19
				c0.28,0.84,0.42,1.72,0.42,2.64v1.06h-11c0,2.22,0.43,3.91,1.28,5.06c0.86,1.16,2.22,1.73,4.08,1.73c1.02,0,1.94-0.28,2.75-0.84
				c0.81-0.56,1.5-1.27,2.08-2.12L349.9,130.38z M343.71,124.21c0-0.65-0.03-1.32-0.1-2c-0.07-0.68-0.18-1.24-0.34-1.67
				c-0.19-0.51-0.44-0.89-0.76-1.15c-0.32-0.26-0.73-0.39-1.22-0.39c-0.84,0-1.51,0.42-2.01,1.27c-0.5,0.85-0.77,2.18-0.82,4.01
				L343.71,124.21z"/>
			<path class="st1" d="M369.99,133.94c-0.47,0.21-1.03,0.4-1.68,0.57c-0.64,0.17-1.33,0.26-2.05,0.26c-1.32,0-2.29-0.2-2.92-0.59
				c-0.63-0.39-1.05-0.96-1.27-1.7h-0.1c-0.37,0.37-0.73,0.68-1.07,0.94c-0.34,0.26-0.71,0.48-1.1,0.66c-0.51,0.24-1,0.41-1.48,0.52
				c-0.47,0.11-1.13,0.16-1.98,0.16c-1.26,0-2.34-0.37-3.23-1.11c-0.89-0.74-1.34-1.72-1.34-2.95c0-0.7,0.1-1.3,0.29-1.79
				c0.2-0.5,0.48-0.93,0.83-1.31c0.33-0.35,0.7-0.63,1.13-0.86c0.43-0.23,0.9-0.44,1.41-0.63c0.98-0.36,2.15-0.73,3.52-1.11
				c1.37-0.38,2.37-0.73,3-1.03v-1.56c0-0.27-0.02-0.62-0.07-1.07c-0.04-0.44-0.14-0.82-0.28-1.12c-0.15-0.35-0.39-0.64-0.72-0.88
				c-0.33-0.24-0.76-0.36-1.29-0.36c-0.48,0-0.88,0.07-1.2,0.21c-0.32,0.14-0.58,0.27-0.78,0.41c0.03,0.22,0.13,0.55,0.28,0.99
				c0.15,0.44,0.23,0.87,0.23,1.28c0,0.18-0.05,0.41-0.15,0.69c-0.1,0.27-0.24,0.49-0.42,0.66c-0.25,0.22-0.53,0.39-0.84,0.5
				c-0.31,0.12-0.78,0.18-1.42,0.18c-0.91,0-1.6-0.22-2.06-0.66c-0.47-0.44-0.7-1.01-0.7-1.71c0-0.61,0.24-1.15,0.72-1.63
				c0.48-0.48,1.07-0.88,1.76-1.2c0.68-0.32,1.47-0.58,2.36-0.75c0.89-0.18,1.71-0.27,2.47-0.27c1.05,0,2.01,0.06,2.89,0.19
				c0.88,0.13,1.67,0.38,2.37,0.78c0.67,0.38,1.21,0.93,1.6,1.65c0.4,0.72,0.59,1.66,0.59,2.82c0,1.22-0.02,2.68-0.07,4.36
				c-0.05,1.68-0.07,2.79-0.07,3.31c0,0.49,0.07,0.88,0.22,1.16c0.14,0.28,0.36,0.5,0.66,0.63c0.18,0.09,0.46,0.14,0.85,0.16
				c0.39,0.01,0.74,0.02,1.06,0.02V133.94z M361.98,125.45c-0.62,0.21-1.22,0.44-1.83,0.71c-0.6,0.27-1.1,0.54-1.48,0.84
				c-0.41,0.3-0.73,0.69-0.96,1.17c-0.23,0.47-0.34,1.02-0.34,1.67c0,0.85,0.2,1.46,0.58,1.84c0.39,0.38,0.87,0.57,1.44,0.57
				c0.6,0,1.1-0.12,1.49-0.36c0.39-0.24,0.73-0.55,1.03-0.91L361.98,125.45z"/>
			<path class="st1" d="M383.33,133.53c-0.69,0.3-1.43,0.57-2.22,0.81c-0.79,0.24-1.75,0.36-2.89,0.36c-1.69,0-2.94-0.41-3.76-1.23
				c-0.82-0.82-1.23-1.99-1.23-3.52V120h-2.93v-1.79h2.99v-4.91h5.25v4.91h4.58V120h-4.54v8.89c0,1.27,0.18,2.16,0.53,2.69
				c0.35,0.53,0.99,0.8,1.9,0.8c0.29,0,0.7-0.02,1.22-0.06c0.52-0.04,0.88-0.09,1.09-0.14V133.53z"/>
			<path class="st1" d="M401.94,130.38c-0.38,0.62-0.84,1.2-1.37,1.74c-0.54,0.55-1.15,1.01-1.83,1.4
				c-0.73,0.41-1.46,0.72-2.21,0.93c-0.74,0.21-1.59,0.32-2.56,0.32c-1.6,0-2.99-0.23-4.16-0.68c-1.16-0.45-2.13-1.06-2.88-1.83
				c-0.76-0.77-1.33-1.68-1.7-2.72c-0.37-1.05-0.56-2.18-0.56-3.4c0-1.1,0.2-2.16,0.61-3.17c0.41-1.01,0.98-1.91,1.73-2.7
				c0.74-0.77,1.67-1.39,2.79-1.87c1.12-0.47,2.38-0.71,3.76-0.71c1.52,0,2.76,0.19,3.74,0.55c0.97,0.37,1.78,0.88,2.42,1.53
				c0.62,0.62,1.07,1.35,1.35,2.19c0.29,0.84,0.42,1.72,0.42,2.64v1.06h-11.01c0,2.22,0.43,3.91,1.29,5.06
				c0.86,1.16,2.22,1.73,4.08,1.73c1.02,0,1.94-0.28,2.75-0.84c0.81-0.56,1.51-1.27,2.08-2.12L401.94,130.38z M395.74,124.21
				c0-0.65-0.03-1.32-0.1-2c-0.07-0.68-0.18-1.24-0.34-1.67c-0.19-0.51-0.44-0.89-0.76-1.15c-0.32-0.26-0.73-0.39-1.22-0.39
				c-0.84,0-1.51,0.42-2.01,1.27c-0.5,0.85-0.78,2.18-0.82,4.01L395.74,124.21z"/>
			<path class="st1" d="M436.99,112.53c-0.36,0.03-0.7,0.1-1.02,0.19c-0.33,0.1-0.66,0.25-1.01,0.45c-0.46,0.27-0.82,0.56-1.08,0.87
				c-0.26,0.3-0.51,0.73-0.76,1.27c-0.34,0.75-0.81,1.84-1.41,3.28c-0.61,1.44-1.3,3.07-2.08,4.9c-0.69,1.65-1.44,3.45-2.25,5.41
				c-0.8,1.96-1.58,3.84-2.31,5.64h-3.26c-1.51-3.72-3.06-7.49-4.63-11.33c-1.57-3.84-2.68-6.5-3.31-8
				c-0.25-0.54-0.49-0.95-0.72-1.22c-0.23-0.28-0.6-0.56-1.11-0.85c-0.37-0.21-0.69-0.35-0.97-0.43c-0.28-0.08-0.65-0.15-1.12-0.22
				v-1.28h12.49v1.25c-1.17,0.14-1.96,0.28-2.37,0.44c-0.42,0.15-0.62,0.35-0.62,0.59c0,0.12,0.02,0.24,0.06,0.38
				c0.04,0.13,0.09,0.32,0.17,0.54c0.35,0.95,0.98,2.51,1.89,4.68c0.92,2.17,2.27,5.47,4.05,9.91c1.1-2.7,2.01-4.99,2.74-6.85
				c0.73-1.87,1.37-3.52,1.92-4.95c0.27-0.69,0.49-1.34,0.68-1.94c0.18-0.6,0.27-1.05,0.27-1.35c0-0.35-0.25-0.63-0.75-0.86
				c-0.5-0.23-1.42-0.4-2.77-0.51v-1.31h9.32V112.53z"/>
			<path class="st1" d="M453.31,133.94c-0.47,0.21-1.03,0.4-1.68,0.57c-0.64,0.17-1.33,0.26-2.05,0.26c-1.32,0-2.29-0.2-2.92-0.59
				c-0.62-0.39-1.05-0.96-1.27-1.7h-0.1c-0.37,0.37-0.73,0.68-1.07,0.94c-0.34,0.26-0.71,0.48-1.1,0.66c-0.51,0.24-1,0.41-1.48,0.52
				c-0.47,0.11-1.13,0.16-1.98,0.16c-1.26,0-2.34-0.37-3.23-1.11c-0.89-0.74-1.33-1.72-1.33-2.95c0-0.7,0.1-1.3,0.29-1.79
				c0.2-0.5,0.47-0.93,0.83-1.31c0.33-0.35,0.71-0.63,1.13-0.86c0.43-0.23,0.9-0.44,1.41-0.63c0.98-0.36,2.16-0.73,3.52-1.11
				c1.37-0.38,2.37-0.73,3-1.03v-1.56c0-0.27-0.02-0.62-0.07-1.07c-0.04-0.44-0.13-0.82-0.28-1.12c-0.15-0.35-0.39-0.64-0.72-0.88
				c-0.33-0.24-0.76-0.36-1.29-0.36c-0.48,0-0.88,0.07-1.2,0.21c-0.32,0.14-0.58,0.27-0.78,0.41c0.04,0.22,0.12,0.55,0.28,0.99
				c0.15,0.44,0.23,0.87,0.23,1.28c0,0.18-0.05,0.41-0.14,0.69c-0.1,0.27-0.24,0.49-0.42,0.66c-0.25,0.22-0.53,0.39-0.83,0.5
				c-0.31,0.12-0.78,0.18-1.42,0.18c-0.91,0-1.6-0.22-2.06-0.66c-0.46-0.44-0.7-1.01-0.7-1.71c0-0.61,0.24-1.15,0.72-1.63
				c0.48-0.48,1.07-0.88,1.76-1.2c0.68-0.32,1.47-0.58,2.36-0.75c0.89-0.18,1.71-0.27,2.47-0.27c1.05,0,2.02,0.06,2.89,0.19
				c0.88,0.13,1.67,0.38,2.37,0.78c0.67,0.38,1.21,0.93,1.6,1.65c0.39,0.72,0.59,1.66,0.59,2.82c0,1.22-0.02,2.68-0.07,4.36
				c-0.05,1.68-0.07,2.79-0.07,3.31c0,0.49,0.07,0.88,0.21,1.16c0.14,0.28,0.37,0.5,0.67,0.63c0.18,0.09,0.46,0.14,0.85,0.16
				c0.39,0.01,0.74,0.02,1.06,0.02V133.94z M445.3,125.45c-0.61,0.21-1.22,0.44-1.83,0.71c-0.61,0.27-1.1,0.54-1.48,0.84
				c-0.41,0.3-0.73,0.69-0.96,1.17c-0.23,0.47-0.35,1.02-0.35,1.67c0,0.85,0.19,1.46,0.58,1.84c0.39,0.38,0.88,0.57,1.45,0.57
				c0.6,0,1.1-0.12,1.49-0.36c0.39-0.24,0.73-0.55,1.03-0.91L445.3,125.45z"/>
			<path class="st1" d="M464.47,134.27h-10.2v-1.18c0.28-0.02,0.56-0.05,0.82-0.08c0.27-0.03,0.5-0.09,0.71-0.16
				c0.35-0.13,0.58-0.32,0.71-0.56c0.13-0.24,0.19-0.57,0.19-0.96v-17.99c0-0.41-0.08-0.79-0.25-1.15c-0.17-0.35-0.39-0.62-0.67-0.8
				c-0.21-0.14-0.54-0.27-0.98-0.4c-0.44-0.13-0.83-0.2-1.16-0.23v-1.18l8.17-0.44l0.24,0.26v21.72c0,0.4,0.07,0.73,0.21,0.97
				c0.14,0.25,0.37,0.44,0.68,0.58c0.22,0.1,0.44,0.19,0.68,0.26c0.24,0.08,0.52,0.13,0.85,0.16V134.27z"/>
			<path class="st1" d="M487.19,133.93l-7.73,0.47l-0.24-0.22v-2.12h-0.1c-0.37,0.34-0.72,0.66-1.08,0.98
				c-0.35,0.32-0.77,0.61-1.26,0.87c-0.55,0.29-1.07,0.51-1.56,0.65c-0.49,0.14-1.21,0.21-2.15,0.21c-1.63,0-2.88-0.49-3.75-1.48
				c-0.87-0.99-1.31-2.38-1.31-4.17v-7.3c0-0.42-0.08-0.77-0.24-1.03c-0.16-0.27-0.37-0.5-0.65-0.71c-0.21-0.16-0.49-0.28-0.84-0.35
				c-0.34-0.07-0.66-0.12-0.93-0.14v-1.18l7.83-0.44l0.18,0.25v10.79c0,1.11,0.21,1.94,0.64,2.47c0.43,0.53,1.02,0.79,1.76,0.79
				c0.77,0,1.46-0.2,2.07-0.6c0.61-0.4,1.06-0.83,1.34-1.29v-8.74c0-0.37-0.07-0.7-0.21-0.99c-0.14-0.29-0.35-0.53-0.62-0.71
				c-0.2-0.13-0.47-0.22-0.83-0.26c-0.36-0.04-0.73-0.08-1.1-0.1v-1.18l7.87-0.44l0.24,0.25v12.53c0,0.38,0.07,0.7,0.23,0.96
				c0.15,0.26,0.37,0.49,0.66,0.68c0.21,0.13,0.47,0.22,0.8,0.27c0.33,0.05,0.65,0.08,0.98,0.09V133.93z"/>
			<path class="st1" d="M505.99,130.38c-0.38,0.62-0.84,1.2-1.37,1.74c-0.54,0.55-1.15,1.01-1.83,1.4
				c-0.73,0.41-1.46,0.72-2.21,0.93c-0.74,0.21-1.6,0.32-2.56,0.32c-1.61,0-2.99-0.23-4.15-0.68c-1.16-0.45-2.13-1.06-2.89-1.83
				c-0.76-0.77-1.33-1.68-1.7-2.72c-0.37-1.05-0.56-2.18-0.56-3.4c0-1.1,0.2-2.16,0.61-3.17c0.41-1.01,0.99-1.91,1.73-2.7
				c0.74-0.77,1.67-1.39,2.79-1.87c1.12-0.47,2.37-0.71,3.76-0.71c1.52,0,2.77,0.19,3.74,0.55c0.98,0.37,1.78,0.88,2.42,1.53
				c0.62,0.62,1.07,1.35,1.35,2.19c0.28,0.84,0.42,1.72,0.42,2.64v1.06h-11c0,2.22,0.43,3.91,1.28,5.06
				c0.86,1.16,2.22,1.73,4.08,1.73c1.02,0,1.93-0.28,2.75-0.84c0.82-0.56,1.51-1.27,2.08-2.12L505.99,130.38z M499.8,124.21
				c0-0.65-0.03-1.32-0.1-2c-0.06-0.68-0.18-1.24-0.34-1.67c-0.19-0.51-0.44-0.89-0.76-1.15c-0.32-0.26-0.73-0.39-1.22-0.39
				c-0.84,0-1.51,0.42-2.01,1.27c-0.5,0.85-0.77,2.18-0.82,4.01L499.8,124.21z"/>
		</g>
	</g>
	<rect class="st0" width="42.88" height="42.88"/>
	<rect x="47.86" class="st0" width="42.88" height="42.88"/>
	<rect y="47.86" class="st0" width="42.88" height="42.88"/>
	<rect x="47.86" y="47.86" class="st0" width="42.88" height="42.88"/>
	<g>
		<path class="st2" d="M114.29,26.09l5.55-14.73l5.33,14.73H114.29z M130.95,42.1h13.15L129.45,1.57h-14.92L99.24,42.1h9l3.32-8.77
			h16.21L130.95,42.1z"/>
		<path class="st2" d="M157.3,7.72h7.72c2.63,0,3.71,2.77,3.71,4.21v2.01c0,1.51-0.89,4.98-4.79,4.98h-6.64V7.72z M170.67,42.1
			h12.27l-12.81-19.87c5.85-0.28,9.37-4.42,9.37-8.84V9.61c0-4.59-3.78-8.37-7.18-8.37h-26.34V42.1h11.33V22.26h0.57L170.67,42.1z"
			/>
		<g>
			<path class="st2" d="M234.05,7.72h7.72c2.63,0,3.71,2.77,3.71,4.21v2.01c0,1.51-0.89,4.98-4.79,4.98h-6.64V7.72z M247.41,42.1
				h12.27l-12.81-19.87c5.85-0.28,9.37-4.42,9.37-8.84V9.61c0-4.59-3.78-8.37-7.18-8.37h-26.34V42.1h11.33V22.26h0.57L247.41,42.1z"
				/>
			<path class="st2" d="M205.11,18.83c2.46,0,4.47-1.61,4.47-5.27c0-3.64-1.88-5.72-4.28-5.72h-7.48v10.99H205.11z M205.11,35.38
				c2.46,0,4.47-1.61,4.47-5.27c0-3.65-1.88-5.72-4.28-5.72h-7.48v10.99H205.11z M211.46,1.34c5.35,0,8.8,4.66,8.87,9.6
				c0.08,4.78-1.88,8.99-7.55,10.31c1.89,0,4.75,1.76,6.24,4.21c1.28,2.16,1.31,4.97,1.31,6.12c0,2.67-0.63,5.8-2.89,7.73
				c-2.4,2.05-6.49,2.79-8.72,2.79H186.8V1.34H211.46z"/>
			<path class="st2" d="M276.33,34.86c3.04,0,5.53-1.63,5.53-4.98V11.89c0-1.53-1.08-4.75-5.53-4.75s-5.52,3.23-5.52,4.75v17.98
				C270.81,33.22,273.31,34.86,276.33,34.86z M259.62,31.16V9.98c0-5.87,4.29-9.98,16.71-9.98c12.43,0,16.71,4.1,16.71,9.98v21.18
				c0,6.7-1.97,11.52-16.71,11.52C261.6,42.67,259.62,37.85,259.62,31.16z"/>
			<polygon class="st3" points="304.92,1.13 293.35,1.13 304.17,42.12 315.97,42.12 318.66,32.87 321.13,42.1 332.65,42.1 
				343.22,1.13 335,1.13 328.36,26.2 321.61,1.13 309.85,1.13 314.79,18.21 312.09,27.9 			"/>
			<polygon class="st3" points="355.91,42 345.15,42 345.15,1.17 355.56,1.17 366.78,24.73 366.78,1.24 377.64,1.24 377.64,41.89 
				366.95,41.89 355.91,18.56 			"/>
		</g>
	</g>
	<g>
		<path class="st4" d="M405.44,1.26h10.69v40.86h-10.69V1.26z"/>
		<path class="st4" d="M418.52,10.74h8.55v2.76c0.99-1.15,2.28-1.95,3.85-2.41c3.13-0.92,5.98-0.75,8.55,0.52
			c3.13,1.5,4.7,3.91,4.7,7.24v23.28h-8.55V22.64c0-1.84-0.43-3.04-1.28-3.62c-1.71-1.03-3.56-1.03-5.56,0
			c-1.14,0.58-1.71,1.67-1.71,3.28v19.83h-8.55V10.74z"/>
		<path class="st4" d="M463.23,1.26h8.98v40.86h-8.98V40.4c-0.71,0.92-1.57,1.44-2.56,1.55c-2.42,0.34-4.92,0.34-7.48,0
			c-2-0.23-3.71-1.15-5.13-2.76c-1.43-1.61-2.14-3.56-2.14-5.86V19.37c0-2.3,0.64-4.19,1.92-5.69c1.42-1.72,3.28-2.76,5.56-3.1
			c2.28-0.34,4.49-0.34,6.63,0c1.28,0.23,2.35,0.86,3.21,1.9V1.26z M455.11,30.57c0,2.07,0.85,3.39,2.56,3.97
			c0.99,0.34,2.14,0.34,3.42,0c1.42-0.34,2.14-1.66,2.14-3.97v-8.45c0-2.18-0.71-3.45-2.14-3.79c-0.85-0.23-1.85-0.23-2.99,0
			c-1.14,0.23-1.92,0.63-2.35,1.21c-0.43,0.58-0.64,1.44-0.64,2.59V30.57z"/>
		<path class="st4" d="M475.24,1.26h10.04v7.59h-10.04V1.26z M475.24,10.74h10.04v31.38h-10.04V10.74z"/>
		<path class="st4" d="M488.11,21.09v-3.1c0-1.84,0.64-3.5,1.92-5c1.28-1.49,3.06-2.24,5.34-2.24h12.18c1.71,0,3.21,0.75,4.49,2.24
			c1.14,1.38,1.71,3.05,1.71,5v24.14h-8.33l-0.21-1.72c-0.57,1.15-1.57,1.72-2.99,1.72h-7.91c-1.85,0-3.42-0.86-4.7-2.59
			c-1.14-2.07-1.78-4.37-1.92-6.9c0-2.76,0.57-5.23,1.71-7.41c0.99-1.49,2.63-2.24,4.92-2.24h10.9c0-1.61-0.14-2.93-0.43-3.97
			c-0.29-1.03-1-1.55-2.14-1.55h-4.27c-1.14,0-1.71,0.58-1.71,1.72v1.9H488.11z M504.99,29.37h-6.2c-1.28,0-2,0.58-2.14,1.72
			c-0.14,0.81-0.14,1.61,0,2.41c0.14,1.15,0.85,1.72,2.14,1.72H502c1.14,0,1.99-0.75,2.57-2.24
			C504.99,31.84,505.13,30.63,504.99,29.37z"/>
	</g>
	<g>
		<path class="st4" d="M99.24,56.58h25.43v6.41h-9.06v23.97h-7.47V62.99h-8.9V56.58z"/>
		<path class="st4" d="M125.49,86.97V63.63h6.67v1.67c0.95-1.11,2.38-1.67,4.29-1.67h4.93v5.9h-4.45c-1.06,0-2.07,0.38-3.02,1.15
			c-1.17,0.94-1.75,2.35-1.75,4.23v12.05H125.49z"/>
		<path class="st4" d="M142.53,71.33v-2.31c0-1.37,0.48-2.61,1.43-3.72c0.95-1.11,2.28-1.67,3.97-1.67h9.06
			c1.27,0,2.38,0.56,3.34,1.67c0.85,1.03,1.27,2.27,1.27,3.72v17.95h-6.2l-0.16-1.28c-0.43,0.85-1.17,1.28-2.22,1.28h-5.88
			c-1.38,0-2.54-0.64-3.5-1.92c-0.85-1.54-1.33-3.25-1.43-5.13c0-2.05,0.42-3.89,1.27-5.51c0.74-1.11,1.96-1.67,3.66-1.67h8.1
			c0-1.2-0.11-2.18-0.32-2.95c-0.21-0.77-0.74-1.15-1.59-1.15h-3.18c-0.85,0-1.27,0.43-1.27,1.28v1.41H142.53z M155.08,77.48h-4.61
			c-0.95,0-1.49,0.43-1.59,1.28c-0.11,0.6-0.11,1.2,0,1.79c0.1,0.86,0.64,1.28,1.59,1.28h2.38c0.85,0,1.48-0.55,1.91-1.67
			C155.08,79.32,155.19,78.42,155.08,77.48z"/>
		<path class="st4" d="M175.77,56.58h6.67v30.38h-6.67v-1.28c-0.53,0.68-1.17,1.07-1.91,1.15c-1.8,0.26-3.65,0.26-5.56,0
			c-1.49-0.17-2.76-0.86-3.81-2.05c-1.06-1.2-1.59-2.65-1.59-4.36V70.04c0-1.71,0.48-3.12,1.43-4.23c1.06-1.28,2.44-2.05,4.13-2.31
			c1.69-0.26,3.34-0.26,4.93,0c0.95,0.17,1.75,0.64,2.38,1.41V56.58z M169.73,78.38c0,1.54,0.63,2.52,1.91,2.95
			c0.74,0.26,1.59,0.26,2.54,0c1.06-0.26,1.59-1.24,1.59-2.95v-6.28c0-1.62-0.53-2.56-1.59-2.82c-0.64-0.17-1.38-0.17-2.23,0
			c-0.85,0.17-1.43,0.47-1.75,0.9c-0.32,0.43-0.48,1.07-0.48,1.92V78.38z"/>
		<path class="st4" d="M184.7,56.58h7.47v5.64h-7.47V56.58z M184.7,63.63h7.47v23.33h-7.47V63.63z"/>
		<path class="st4" d="M193.95,63.63h6.36v2.05c0.74-0.85,1.69-1.45,2.86-1.79c2.33-0.68,4.45-0.55,6.36,0.38
			c2.33,1.11,3.5,2.91,3.5,5.38v17.31h-6.36V72.48c0-1.37-0.32-2.26-0.95-2.69c-1.27-0.77-2.65-0.77-4.13,0
			c-0.85,0.43-1.27,1.24-1.27,2.44v14.74h-6.36V63.63z"/>
		<path class="st4" d="M221.32,63.63h7.63c1.27-0.08,2.33,0.26,3.18,1.03c0.53-1.03,1.38-1.54,2.54-1.54h1.91v5.77h-1.59
			c-0.53,0-0.85,0.3-0.95,0.9c0.1,0.94,0,1.71-0.32,2.31c-0.74,2.05-2.12,3.08-4.13,3.08h-6.67c-0.32,0-0.48,0.13-0.48,0.38
			c0,0.34,0.16,0.51,0.48,0.51h7.63c2.23,0,3.76,0.9,4.61,2.69c0.95,2.14,1.01,4.32,0.16,6.54c-0.64,1.79-1.91,2.69-3.81,2.69
			h-12.71c-1.7,0-2.92-0.77-3.66-2.31c-0.85-1.88-0.95-3.85-0.32-5.9c0.21-0.6,0.53-1.11,0.95-1.54c-0.43-0.85-0.53-1.67-0.32-2.44
			c0.21-0.85,0.79-1.54,1.75-2.05c-0.43-0.51-0.74-1.07-0.95-1.67c-0.85-2.05-0.85-3.93,0-5.64
			C217.18,64.49,218.88,63.55,221.32,63.63z M222.11,80.81c-0.74,0-1.11,0.38-1.11,1.15c0,0.86,0.32,1.28,0.95,1.28h6.04
			c0.64,0,0.95-0.38,0.95-1.15c-0.11-0.85-0.42-1.28-0.95-1.28H222.11z M226.56,70.56c0.53,0,0.79-0.38,0.79-1.15
			c0-0.77-0.32-1.15-0.95-1.15h-3.81c-0.43,0-0.64,0.38-0.64,1.15c0,0.77,0.26,1.15,0.8,1.15H226.56z"/>
		<path class="st4" d="M247.92,56.58h17.8c1.27,0,2.49,0.38,3.65,1.15c0.95,0.6,1.8,1.62,2.54,3.08c0.74,1.71,1.16,3.55,1.27,5.51
			c0.1,2.31-0.32,4.53-1.27,6.67c-0.63,1.28-1.43,2.22-2.38,2.82c-1.17,0.77-2.6,1.15-4.29,1.15h-9.69v10h-7.63V56.58z
			 M255.55,62.99v7.69h6.99c1.27,0,2.12-0.81,2.54-2.44c0.21-0.85,0.21-1.75,0-2.69c-0.53-1.54-1.38-2.39-2.54-2.56H255.55z"/>
		<path class="st4" d="M274.49,86.97V63.63h6.67v1.67c0.95-1.11,2.38-1.67,4.29-1.67h4.93v5.9h-4.45c-1.06,0-2.07,0.38-3.02,1.15
			c-1.17,0.94-1.75,2.35-1.75,4.23v12.05H274.49z"/>
		<path class="st4" d="M291.69,56.58h7.47v5.64h-7.47V56.58z M291.69,63.63h7.47v23.33h-7.47V63.63z"/>
		<path class="st4" d="M300.46,63.89h6.83l4.45,16.03l4.13-16.03h6.83l-6.99,23.08h-8.42L300.46,63.89z"/>
		<path class="st4" d="M323.85,71.33v-2.31c0-1.37,0.48-2.61,1.43-3.72c0.95-1.11,2.28-1.67,3.97-1.67h9.06
			c1.27,0,2.38,0.56,3.34,1.67c0.85,1.03,1.27,2.27,1.27,3.72v17.95h-6.2l-0.16-1.28c-0.42,0.85-1.17,1.28-2.22,1.28h-5.88
			c-1.38,0-2.54-0.64-3.5-1.92c-0.85-1.54-1.33-3.25-1.43-5.13c0-2.05,0.42-3.89,1.27-5.51c0.74-1.11,1.96-1.67,3.65-1.67h8.1
			c0-1.2-0.11-2.18-0.32-2.95c-0.21-0.77-0.74-1.15-1.59-1.15h-3.18c-0.85,0-1.27,0.43-1.27,1.28v1.41H323.85z M336.4,77.48h-4.61
			c-0.95,0-1.49,0.43-1.59,1.28c-0.11,0.6-0.11,1.2,0,1.79c0.1,0.86,0.64,1.28,1.59,1.28h2.38c0.85,0,1.48-0.55,1.91-1.67
			C336.4,79.32,336.51,78.42,336.4,77.48z"/>
		<path class="st4" d="M343.74,63.63h2.38v-7.05h6.68v7.05h5.4v6.03h-5.4v9.36c0,1.37,0.63,2.05,1.91,2.05h3.18v5.9h-4.77
			c-2.01,0-3.76-0.6-5.24-1.79c-1.17-0.94-1.75-2.56-1.75-4.87V69.66h-2.38V63.63z"/>
		<path class="st4" d="M365.87,77.74v1.92c0,0.69,0.1,1.15,0.32,1.41c0.32,0.43,0.79,0.64,1.43,0.64h2.22
			c1.06,0,1.69-0.38,1.91-1.15c0.21-0.68,0.32-1.41,0.32-2.18h6.67c0,1.79-0.16,3.25-0.48,4.36s-1.01,2.09-2.07,2.95
			c-1.06,0.85-2.54,1.28-4.45,1.28h-5.56c-1.91,0-3.6-0.81-5.09-2.44c-1.27-1.37-1.91-3.25-1.91-5.64v-7.18
			c0-2.31,0.69-4.23,2.07-5.77c1.38-1.54,2.96-2.31,4.77-2.31h5.56c1.91,0,3.39,0.43,4.45,1.28c1.16,0.94,1.91,2.18,2.22,3.72
			c0.32,1.45,0.32,2.82,0,4.1c-0.21,1.37-0.85,2.52-1.91,3.46c-1.27,1.03-2.54,1.54-3.81,1.54H365.87z M365.87,72.61h4.93
			c0.74,0,1.17-0.3,1.27-0.9c0.1-0.51,0.1-1.07,0-1.67c-0.11-0.51-0.53-0.9-1.27-1.15h-3.18c-1.17,0-1.75,0.77-1.75,2.31V72.61z"/>
		<path class="st4" d="M398.35,56.58v23.97h13.35v6.41h-21.13V56.58H398.35z"/>
		<path class="st4" d="M413,56.58h7.47v5.64H413V56.58z M413,63.63h7.47v23.33H413V63.63z"/>
		<path class="st4" d="M422.25,63.63h6.2v1.92c1.17-1.28,2.6-1.92,4.29-1.92c1.69,0,3.07,0.69,4.13,2.05
			c1.59-1.71,3.39-2.44,5.4-2.18c2.01,0.26,3.44,1.07,4.29,2.44c0.53,0.86,0.8,1.71,0.8,2.56v18.46h-6.2V71.2
			c0-0.77-0.16-1.28-0.48-1.54c-0.85-0.68-1.7-0.68-2.54,0c-0.21,0.17-0.32,0.69-0.32,1.54v15.77h-6.2V71.2
			c0-0.77-0.21-1.32-0.63-1.67c-0.53-0.43-1.11-0.43-1.75,0c-0.53,0.34-0.8,0.9-0.8,1.67v15.77h-6.2V63.63z"/>
		<path class="st4" d="M449.14,56.58h7.47v5.64h-7.47V56.58z M449.14,63.63h7.47v23.33h-7.47V63.63z"/>
		<path class="st4" d="M457.91,63.63h2.38v-7.05h6.68v7.05h5.4v6.03h-5.4v9.36c0,1.37,0.63,2.05,1.91,2.05h3.18v5.9h-4.77
			c-2.01,0-3.76-0.6-5.24-1.79c-1.17-0.94-1.75-2.56-1.75-4.87V69.66h-2.38V63.63z"/>
		<path class="st4" d="M480.03,77.74v1.92c0,0.69,0.1,1.15,0.32,1.41c0.32,0.43,0.79,0.64,1.43,0.64H484c1.06,0,1.69-0.38,1.91-1.15
			c0.21-0.68,0.32-1.41,0.32-2.18h6.67c0,1.79-0.16,3.25-0.48,4.36s-1.01,2.09-2.07,2.95c-1.06,0.85-2.54,1.28-4.45,1.28h-5.56
			c-1.91,0-3.6-0.81-5.09-2.44c-1.27-1.37-1.91-3.25-1.91-5.64v-7.18c0-2.31,0.69-4.23,2.07-5.77c1.38-1.54,2.96-2.31,4.77-2.31
			h5.56c1.91,0,3.39,0.43,4.45,1.28c1.16,0.94,1.91,2.18,2.22,3.72c0.32,1.45,0.32,2.82,0,4.1c-0.21,1.37-0.85,2.52-1.91,3.46
			c-1.27,1.03-2.54,1.54-3.81,1.54H480.03z M480.03,72.61h4.93c0.74,0,1.17-0.3,1.27-0.9c0.1-0.51,0.1-1.07,0-1.67
			c-0.11-0.51-0.53-0.9-1.27-1.15h-3.18c-1.17,0-1.75,0.77-1.75,2.31V72.61z"/>
		<path class="st4" d="M507.08,56.58h6.67v30.38h-6.67v-1.28c-0.53,0.68-1.17,1.07-1.91,1.15c-1.8,0.26-3.65,0.26-5.56,0
			c-1.49-0.17-2.76-0.86-3.81-2.05c-1.06-1.2-1.59-2.65-1.59-4.36V70.04c0-1.71,0.48-3.12,1.43-4.23c1.06-1.28,2.44-2.05,4.13-2.31
			c1.69-0.26,3.34-0.26,4.93,0c0.95,0.17,1.75,0.64,2.38,1.41V56.58z M501.04,78.38c0,1.54,0.63,2.52,1.91,2.95
			c0.74,0.26,1.59,0.26,2.54,0c1.06-0.26,1.59-1.24,1.59-2.95v-6.28c0-1.62-0.53-2.56-1.59-2.82c-0.64-0.17-1.38-0.17-2.23,0
			c-0.85,0.17-1.43,0.47-1.75,0.9c-0.32,0.43-0.48,1.07-0.48,1.92V78.38z"/>
	</g>
</g>
</svg>
